Coordinates
version=1
nRows=12
nColumns=34
inDegrees=yes

Units are S.I. units (second, meters, Newtons, ...)
If the header above contains a line with 'inDegrees', this indicates whether rotational values are in degrees (yes) or radians (no).

endheader
time	pelvis_tilt	pelvis_list	pelvis_rotation	pelvis_tx	pelvis_ty	pelvis_tz	hip_flexion_r	hip_adduction_r	hip_rotation_r	knee_angle_r	ankle_angle_r	subtalar_angle_r	mtp_angle_r	hip_flexion_l	hip_adduction_l	hip_rotation_l	knee_angle_l	ankle_angle_l	subtalar_angle_l	mtp_angle_l	lumbar_extension	lumbar_bending	lumbar_rotation	arm_flex_r	arm_add_r	arm_rot_r	elbow_flex_r	pro_sup_r	arm_flex_l	arm_add_l	arm_rot_l	elbow_flex_l	pro_sup_l
      0.00000000	      3.97685248	     -8.17547160	    -54.58715905	      1.48349972	      0.97986619	      3.30813102	     39.93298723	      8.05088926	     -1.39159651	     42.30984444	    -17.73103417	     -3.08953019	      0.00000000	     21.31250346	     16.62151568	      5.62161031	     19.37823978	     -6.61379758	    -16.56115895	      0.00000000	    -25.71884650	     -1.87109506	      5.59980998	     18.02296506	     32.02413936	     20.05668424	     24.21894620	     96.01828528	     13.50431910	     27.44625062	     23.90774716	     17.88744371	     85.26658094
      0.01666670	      4.13409461	     -8.87037883	    -55.45279366	      1.48217457	      0.98180896	      3.30900387	     38.85664912	      8.99941647	     -1.00417850	     41.53705062	    -19.27966045	     -5.26183207	      0.00000000	     20.69145276	     16.00568238	      4.98288300	     19.39590329	     -6.51858968	    -16.58106555	      0.00000000	    -26.42353318	     -1.99913073	      6.02709759	     18.48179807	     31.77041196	     22.61967958	     23.78653980	     96.55949577	     13.80233947	     27.39650444	     23.63672486	     17.86257146	     85.86872072
      0.03333330	      4.01795411	     -8.63094048	    -54.88945131	      1.48214486	      0.98166418	      3.30735763	     39.13741609	      8.97961898	     -0.32658248	     41.42760941	    -19.08807330	     -5.31124878	      0.00000000	     20.70284346	     16.16093930	      5.25605805	     18.88762415	     -6.80049511	    -16.04870387	      0.00000000	    -26.55279883	     -1.73024039	      6.17395495	     18.83764414	     31.52287863	     22.66789551	     23.82585875	     96.57433718	     13.82209017	     27.53262506	     23.62904332	     17.93739289	     85.97595462
      0.05000000	      3.97152383	     -8.36356320	    -54.54765195	      1.48238363	      0.98176478	      3.30652534	     39.52490589	      8.82766412	      0.03686748	     41.47176874	    -19.57993715	     -5.45108779	      0.00000000	     20.45087444	     16.34893765	      5.54608339	     17.91077359	     -7.02222908	    -15.52072648	      0.00000000	    -26.41975219	     -1.69342724	      6.10147759	     18.93177662	     31.40079976	     22.59984187	     23.73633084	     96.56564898	     13.88861914	     27.56653423	     23.63859306	     18.07562171	     86.13373072
      0.06666670	      4.07228710	     -8.10225948	    -54.74212279	      1.48230349	      0.98188141	      3.30675045	     39.51308995	      8.51705237	     -0.30545733	     41.30435659	    -19.38814754	     -5.49799957	      0.00000000	     20.44225261	     16.47716521	      5.28296625	     17.47754650	     -7.19062955	    -15.38740924	      0.00000000	    -26.21830799	     -1.87398319	      6.61420790	     19.22866729	     31.16328643	     22.56553622	     23.65184271	     96.57156673	     13.91966087	     27.63872518	     23.61293064	     18.21537944	     86.27850303
      0.08333330	      4.16574437	     -8.08106690	    -55.41708946	      1.48255691	      0.98214082	      3.30830016	     39.02115317	      8.59824959	     -0.43456881	     40.89605837	    -18.35211104	     -4.54132888	      0.00000000	     20.65164962	     16.36949876	      4.46678108	     17.90065636	     -7.02444001	    -15.70970320	      0.00000000	    -25.94154098	     -2.11815984	      7.58909849	     19.27421898	     30.94234978	     22.53733295	     23.42406300	     96.60551131	     13.61280422	     27.68370068	     23.77195967	     18.51535921	     86.68012205
      0.10000000	      4.16452001	     -7.99599235	    -55.41049411	      1.48247463	      0.98233278	      3.30924665	     38.53452320	      8.72631737	     -0.10726897	     40.26046981	    -17.57639744	     -4.71882211	      0.00000000	     20.89461686	     16.37557794	      4.46174480	     18.28239018	     -7.11706736	    -15.57110039	      0.00000000	    -25.67974467	     -2.32206095	      7.84831348	     19.40147306	     30.85607733	     22.48018777	     23.28019117	     96.61863227	     13.58881425	     27.55212129	     23.89113324	     18.54651800	     86.84913770
      0.11666670	      4.07883205	     -7.79320446	    -55.33945371	      1.48283022	      0.98235206	      3.30973642	     38.06055281	      8.92374662	      0.48776175	     39.40204112	    -16.66048408	     -5.10592519	      0.00000000	     21.06881843	     16.42092309	      4.39109304	     18.22397564	     -7.14724059	    -15.44081385	      0.00000000	    -25.34572149	     -2.38218065	      7.99079071	     19.38956029	     30.70436372	     22.49227441	     23.02698932	     96.65182246	     13.53276233	     27.47473855	     24.08856886	     18.56265633	     87.04483758
      0.13333330	      4.28064616	     -7.36461283	    -55.67190721	      1.48210720	      0.98287888	      3.31107278	     37.52078423	      9.42230491	      2.20435965	     38.53497032	    -16.78231359	     -7.65018679	      0.00000000	     20.93602069	     16.60139915	      3.88076470	     17.39681672	     -7.38270626	    -15.27062298	      0.00000000	    -25.02414665	     -3.16616775	      8.11225251	     19.39126711	     30.67963078	     22.93052468	     22.68905552	     96.92144008	     13.56040304	     27.22142905	     25.03525945	     18.60671543	     88.05575254
      0.15000000	      4.23470469	     -7.04601537	    -56.01584494	      1.48219282	      0.98342227	      3.31146896	     36.92877484	      9.67012542	      3.39601372	     37.52955580	    -15.30238983	     -7.22692203	      0.00000000	     20.85027343	     16.63953954	      3.80659403	     16.59161753	     -7.57038628	    -15.23278651	      0.00000000	    -24.71493928	     -3.45731641	      8.24899762	     19.40444816	     30.41589517	     23.29275131	     22.58624477	     97.13738056	     13.57019584	     27.21639845	     25.39048954	     18.49007606	     88.68045030
      0.16666670	      4.18938551	     -6.74679144	    -56.20869868	      1.48270193	      0.98420092	      3.31243113	     36.14912013	      9.58426412	      3.89772039	     36.31185357	    -13.36976002	     -5.56681068	      0.00000000	     20.73321545	     16.66787801	      3.57562953	     15.88664796	     -7.85627955	    -15.08591696	      0.00000000	    -24.39580355	     -3.77679753	      8.31261711	     19.26154764	     30.11702395	     23.51548712	     22.39705159	     97.30041289	     13.24745159	     27.11088585	     25.85654137	     18.70453092	     89.26055420
      0.18333330	      3.87896374	     -6.50841254	    -56.22283819	      1.48269349	      0.98450349	      3.31321356	     35.69037763	      9.88126766	      4.71987470	     35.41770344	    -11.92472531	     -5.30390121	      0.00000000	     20.92985666	     16.50048027	      3.70021242	     15.61747627	     -8.02198799	    -14.96682617	      0.00000000	    -24.01928790	     -3.89887386	      7.94414262	     19.10468496	     29.99492876	     23.49971053	     22.24979400	     97.31961235	     13.12706622	     26.87929291	     25.95776162	     18.62238784	     89.38470602
